<svg width="19" height="22" viewBox="0 0 19 22" fill="none" xmlns="http://www.w3.org/2000/svg">
<path fill-rule="evenodd" clip-rule="evenodd" d="M7.25257 18.9191C7.7655 19.4904 8.424 19.8043 9.10725 19.8043H9.10824C9.79446 19.8043 10.4559 19.4904 10.9698 18.9181C11.2451 18.6141 11.7145 18.5893 12.0185 18.8636C12.3235 19.1379 12.3482 19.6083 12.0739 19.9123C11.2738 20.8005 10.2212 21.2897 9.10824 21.2897H9.10626C7.99622 21.2887 6.94561 20.7995 6.14848 19.9113C5.87419 19.6073 5.89895 19.1369 6.20393 18.8636C6.50892 18.5884 6.97828 18.6131 7.25257 18.9191ZM9.15656 0C13.5581 0 16.5149 3.42813 16.5149 6.6295C16.5149 8.27623 16.9337 8.97434 17.3783 9.71502C17.818 10.4458 18.3161 11.2756 18.3161 12.8441C17.9705 16.8515 13.7868 17.1783 9.15656 17.1783C4.52631 17.1783 0.341651 16.8515 1.31068e-05 12.9075C-0.00294432 11.2756 0.495135 10.4458 0.934791 9.71502L1.09 9.45375C1.47216 8.79695 1.79826 8.0825 1.79826 6.6295C1.79826 3.42813 4.75505 0 9.15656 0ZM9.15656 1.48533C5.69575 1.48533 3.28359 4.19654 3.28359 6.6295C3.28359 8.68816 2.71223 9.63976 2.20722 10.4795C1.80222 11.1538 1.48238 11.6865 1.48238 12.8441C1.64775 14.7117 2.88057 15.693 9.15656 15.693C15.3979 15.693 16.6693 14.6681 16.8337 12.7797C16.8307 11.6865 16.5109 11.1538 16.1059 10.4795C15.6009 9.63976 15.0295 8.68816 15.0295 6.6295C15.0295 4.19654 12.6174 1.48533 9.15656 1.48533Z" fill="#585FCD"/>
</svg>
